<svg width="35" height="35" viewBox="0 0 35 35" fill="none" xmlns="http://www.w3.org/2000/svg">
<path d="M17.0218 0C7.62119 0 0 7.62119 0 17.0218C0 26.4224 7.62119 34.0436 17.0218 34.0436C26.4224 34.0436 34.0436 26.4224 34.0436 17.0218C34.0436 7.62119 26.4224 0 17.0218 0ZM21.2213 9.94021H27.4204V12.0481H21.2213V9.94021ZM17.4712 23.0224C15.9264 24.8307 13.7661 24.4084 11.6456 24.5744H5.47361V8.88627C7.88468 8.96207 10.3571 8.78701 12.7609 8.88447C13.3583 8.90793 14.1433 8.96027 14.7244 9.09201C17.7924 9.78862 18.9113 13.5478 16.5111 15.6773L15.643 16.2656C18.7543 16.9875 19.4256 20.7394 17.473 23.0242L17.4712 23.0224ZM23.4284 24.7513C19.5068 24.1918 18.3446 20.0862 19.3156 16.6861C20.7503 11.6583 27.942 11.6691 29.3117 16.6988C29.5788 17.6823 29.6311 18.7236 29.651 19.7378H22.1489C22.0876 21.3873 23.1992 22.7661 24.9534 22.5117C25.7565 22.3943 26.2943 21.6761 26.426 20.9163L29.4561 21.4974C28.5501 24.1467 26.0831 25.1321 23.4266 24.7531L23.4284 24.7513Z" fill="#E3E3E1"/>
<path d="M14.2081 14.553C14.9607 13.8203 14.8777 12.2737 13.8851 11.7901C13.7678 11.7323 13.2282 11.5536 13.1307 11.5536H8.63525V15.0872H12.9448C13.2733 15.0872 13.9663 14.7895 14.2081 14.553Z" fill="#E3E3E1"/>
<path d="M12.5117 17.7491C11.2412 17.6823 9.91117 17.805 8.63525 17.7509V21.9053C9.91478 21.8584 11.2376 21.9667 12.5117 21.9071C14.0313 21.8367 15.3685 21.5552 15.2711 19.7C15.1863 18.0974 13.8544 17.8195 12.5117 17.7473V17.7491Z" fill="#E3E3E1"/>
<path d="M23.6213 15.4102C22.5764 15.7928 22.1992 16.8395 22.1505 17.8754H26.6135C26.6803 16.2043 25.3412 14.7786 23.6213 15.4102Z" fill="#E3E3E1"/>
</svg>
