<svg width="58" height="53" viewBox="0 0 58 53" fill="none" xmlns="http://www.w3.org/2000/svg">
<ellipse cx="49.9064" cy="37.4384" rx="4.5" ry="5" transform="rotate(121.176 49.9064 37.4384)" fill="#DA308E"/>
<ellipse cx="50.9064" cy="29.4385" rx="4.5" ry="5" transform="rotate(121.176 50.9064 29.4385)" fill="#DA308E"/>
<ellipse cx="49.9064" cy="21.4385" rx="4.5" ry="5" transform="rotate(121.176 49.9064 21.4385)" fill="#DA308E"/>
<ellipse cx="45.9064" cy="14.4385" rx="4.5" ry="5" transform="rotate(121.176 45.9064 14.4385)" fill="#DA308E"/>
<ellipse cx="40.9064" cy="8.43845" rx="4.5" ry="5" transform="rotate(121.176 40.9064 8.43845)" fill="#DA308E"/>
<ellipse cx="31.9064" cy="6.43845" rx="4.5" ry="5" transform="rotate(121.176 31.9064 6.43845)" fill="#DA308E"/>
<ellipse cx="23.9064" cy="6.43845" rx="4.5" ry="5" transform="rotate(121.176 23.9064 6.43845)" fill="#DA308E"/>
<ellipse cx="15.9064" cy="9.43845" rx="4.5" ry="5" transform="rotate(121.176 15.9064 9.43845)" fill="#DA308E"/>
<ellipse cx="11.626" cy="14.99" rx="4.5" ry="5" transform="rotate(121.176 11.626 14.99)" fill="#DA308E"/>
<ellipse cx="8.0022" cy="20.979" rx="4.5" ry="5" transform="rotate(121.176 8.0022 20.979)" fill="#DA308E"/>
<ellipse cx="6.60743" cy="27.1478" rx="4.5" ry="5" transform="rotate(121.176 6.60743 27.1478)" fill="#DA308E"/>
<ellipse cx="8.29688" cy="34.0141" rx="4.5" ry="5" transform="rotate(121.176 8.29688 34.0141)" fill="#DA308E"/>
<ellipse cx="12.2153" cy="41.0601" rx="4.5" ry="5" transform="rotate(121.176 12.2153 41.0601)" fill="#DA308E"/>
<ellipse cx="18.2043" cy="44.6838" rx="4.5" ry="5" transform="rotate(121.176 18.2043 44.6838)" fill="#DA308E"/>
<ellipse cx="25.9618" cy="45.529" rx="4.5" ry="5" transform="rotate(124.084 25.9618 45.529)" fill="#DA308E"/>
<ellipse cx="31.9064" cy="43.4385" rx="4.5" ry="5" transform="rotate(121.176 31.9064 43.4385)" fill="#DA308E"/>
<ellipse cx="35.9064" cy="36.4384" rx="4.5" ry="5" transform="rotate(121.176 35.9064 36.4384)" fill="#DA308E"/>
<ellipse cx="36.9064" cy="28.4385" rx="4.5" ry="5" transform="rotate(121.176 36.9064 28.4385)" fill="#DA308E"/>
<ellipse cx="31.9064" cy="22.4385" rx="4.5" ry="5" transform="rotate(121.176 31.9064 22.4385)" fill="#DA308E"/>
<ellipse cx="25.3152" cy="23.2727" rx="4.5" ry="5" transform="rotate(121.176 25.3152 23.2727)" fill="#DA308E"/>
<ellipse cx="21.9064" cy="29.4385" rx="4.5" ry="5" transform="rotate(121.176 21.9064 29.4385)" fill="#DA308E"/>
</svg>
