<svg width="73" height="64" viewBox="0 0 73 64" fill="none" xmlns="http://www.w3.org/2000/svg">
<path d="M11.4414 52.7578C10.0417 52.7578 8.88607 52.2695 7.97461 51.293C7.0306 50.349 6.55859 49.2096 6.55859 47.875C6.55859 46.5404 7.0306 45.401 7.97461 44.457C8.88607 43.4805 10.0417 42.9922 11.4414 42.9922H12.8086C14.2083 42.9922 15.3639 43.4805 16.2754 44.457C17.2194 45.401 17.6914 46.5404 17.6914 47.875C17.6914 49.2096 17.2194 50.349 16.2754 51.293C15.3639 52.2695 14.2083 52.7578 12.8086 52.7578H11.4414ZM27.0664 52.7578C25.6667 52.7578 24.4948 52.2695 23.5508 51.293C22.6393 50.349 22.1836 49.2096 22.1836 47.875C22.1836 46.5404 22.6393 45.401 23.5508 44.457C24.4948 43.4805 25.6667 42.9922 27.0664 42.9922H28.4336C29.8333 42.9922 30.9889 43.4805 31.9004 44.457C32.8444 45.401 33.3164 46.5404 33.3164 47.875C33.3164 49.2096 32.8444 50.349 31.9004 51.293C30.9889 52.2695 29.8333 52.7578 28.4336 52.7578H27.0664ZM11.4414 46.5078C10.0417 46.5078 8.88607 46.0358 7.97461 45.0918C7.0306 44.1152 6.55859 42.9596 6.55859 41.625C6.55859 40.2904 7.0306 39.151 7.97461 38.207C8.88607 37.2305 10.0417 36.7422 11.4414 36.7422H12.8086C14.2083 36.7422 15.3639 37.2305 16.2754 38.207C17.2194 39.151 17.6914 40.2904 17.6914 41.625C17.6914 42.9596 17.2194 44.1152 16.2754 45.0918C15.3639 46.0358 14.2083 46.5078 12.8086 46.5078H11.4414ZM27.0664 46.5078C25.6667 46.5078 24.4948 46.0358 23.5508 45.0918C22.6393 44.1152 22.1836 42.9596 22.1836 41.625C22.1836 40.2904 22.6393 39.151 23.5508 38.207C24.4948 37.2305 25.6667 36.7422 27.0664 36.7422H28.4336C29.8333 36.7422 30.9889 37.2305 31.9004 38.207C32.8444 39.151 33.3164 40.2904 33.3164 41.625C33.3164 42.9596 32.8444 44.1152 31.9004 45.0918C30.9889 46.0358 29.8333 46.5078 28.4336 46.5078H27.0664ZM11.4414 40.2578C10.0417 40.2578 8.88607 39.7858 7.97461 38.8418C7.0306 37.8652 6.55859 36.7096 6.55859 35.375C6.55859 34.0404 7.0306 32.901 7.97461 31.957C8.88607 30.9805 10.0417 30.4922 11.4414 30.4922H12.8086C14.2083 30.4922 15.3639 30.9805 16.2754 31.957C17.2194 32.901 17.6914 34.0404 17.6914 35.375C17.6914 36.7096 17.2194 37.8652 16.2754 38.8418C15.3639 39.7858 14.2083 40.2578 12.8086 40.2578H11.4414ZM19.5957 40.2578C18.6191 40.2578 17.7565 39.7858 17.0078 38.8418C16.2917 37.8652 15.9336 36.7096 15.9336 35.375C15.9336 34.0404 16.2917 32.901 17.0078 31.957C17.7565 30.9805 18.6191 30.4922 19.5957 30.4922H20.2793C21.2559 30.4922 22.1022 30.9805 22.8184 31.957C23.5671 32.901 23.9414 34.0404 23.9414 35.375C23.9414 36.7096 23.5671 37.8652 22.8184 38.8418C22.1022 39.7858 21.2559 40.2578 20.2793 40.2578H19.5957ZM27.0664 40.2578C25.6667 40.2578 24.4948 39.7858 23.5508 38.8418C22.6393 37.8652 22.1836 36.7096 22.1836 35.375C22.1836 34.0404 22.6393 32.901 23.5508 31.957C24.4948 30.9805 25.6667 30.4922 27.0664 30.4922H28.4336C29.8333 30.4922 30.9889 30.9805 31.9004 31.957C32.8444 32.901 33.3164 34.0404 33.3164 35.375C33.3164 36.7096 32.8444 37.8652 31.9004 38.8418C30.9889 39.7858 29.8333 40.2578 28.4336 40.2578H27.0664ZM12.418 34.0078C10.5951 34.0078 9.16276 33.5358 8.12109 32.5918C7.07943 31.6152 6.55859 30.4596 6.55859 29.125C6.55859 27.7904 7.07943 26.651 8.12109 25.707C9.16276 24.7305 10.5951 24.2422 12.418 24.2422H27.457C29.2799 24.2422 30.7122 24.7305 31.7539 25.707C32.7956 26.651 33.3164 27.7904 33.3164 29.125C33.3164 30.4596 32.7956 31.6152 31.7539 32.5918C30.7122 33.5358 29.2799 34.0078 27.457 34.0078H12.418ZM11.4414 27.7578C10.0417 27.7578 8.88607 27.2858 7.97461 26.3418C7.0306 25.3652 6.55859 24.2096 6.55859 22.875C6.55859 21.5404 7.0306 20.401 7.97461 19.457C8.88607 18.4805 10.0417 17.9922 11.4414 17.9922H15.9336C17.3333 17.9922 18.4889 18.4805 19.4004 19.457C20.3444 20.401 20.8164 21.5404 20.8164 22.875C20.8164 24.2096 20.3444 25.3652 19.4004 26.3418C18.4889 27.2858 17.3333 27.7578 15.9336 27.7578H11.4414ZM23.9414 27.7578C22.5417 27.7578 21.3698 27.2858 20.4258 26.3418C19.5143 25.3652 19.0586 24.2096 19.0586 22.875C19.0586 21.5404 19.5143 20.401 20.4258 19.457C21.3698 18.4805 22.5417 17.9922 23.9414 17.9922H28.4336C29.8333 17.9922 30.9889 18.4805 31.9004 19.457C32.8444 20.401 33.3164 21.5404 33.3164 22.875C33.3164 24.2096 32.8444 25.3652 31.9004 26.3418C30.9889 27.2858 29.8333 27.7578 28.4336 27.7578H23.9414ZM11.4414 21.5078C10.0417 21.5078 8.88607 21.0358 7.97461 20.0918C7.0306 19.1152 6.55859 17.9596 6.55859 16.625C6.55859 15.2904 7.0306 14.151 7.97461 13.207C8.88607 12.2305 10.0417 11.7422 11.4414 11.7422H12.8086C14.2083 11.7422 15.3639 12.2305 16.2754 13.207C17.2194 14.151 17.6914 15.2904 17.6914 16.625C17.6914 17.9596 17.2194 19.1152 16.2754 20.0918C15.3639 21.0358 14.2083 21.5078 12.8086 21.5078H11.4414ZM27.0664 21.5078C25.6667 21.5078 24.4948 21.0358 23.5508 20.0918C22.6393 19.1152 22.1836 17.9596 22.1836 16.625C22.1836 15.2904 22.6393 14.151 23.5508 13.207C24.4948 12.2305 25.6667 11.7422 27.0664 11.7422H28.4336C29.8333 11.7422 30.9889 12.2305 31.9004 13.207C32.8444 14.151 33.3164 15.2904 33.3164 16.625C33.3164 17.9596 32.8444 19.1152 31.9004 20.0918C30.9889 21.0358 29.8333 21.5078 28.4336 21.5078H27.0664ZM10.2207 15.2578C9.24414 15.2578 8.39779 14.7858 7.68164 13.8418C6.93294 12.8652 6.55859 11.7096 6.55859 10.375C6.55859 9.04036 6.93294 7.90104 7.68164 6.95703C8.39779 5.98047 9.24414 5.49219 10.2207 5.49219H10.9043C11.8809 5.49219 12.7272 5.98047 13.4434 6.95703C14.1921 7.90104 14.5664 9.04036 14.5664 10.375C14.5664 11.7096 14.1921 12.8652 13.4434 13.8418C12.7272 14.7858 11.8809 15.2578 10.9043 15.2578H10.2207ZM28.9707 15.2578C27.9941 15.2578 27.1315 14.7858 26.3828 13.8418C25.6667 12.8652 25.3086 11.7096 25.3086 10.375C25.3086 9.04036 25.6667 7.90104 26.3828 6.95703C27.1315 5.98047 27.9941 5.49219 28.9707 5.49219H29.6543C30.6309 5.49219 31.4772 5.98047 32.1934 6.95703C32.9421 7.90104 33.3164 9.04036 33.3164 10.375C33.3164 11.7096 32.9421 12.8652 32.1934 13.8418C31.4772 14.7858 30.6309 15.2578 29.6543 15.2578H28.9707ZM41.4414 52.7578C40.0417 52.7578 38.8861 52.2695 37.9746 51.293C37.0306 50.349 36.5586 49.2096 36.5586 47.875C36.5586 46.5404 37.0306 45.401 37.9746 44.457C38.8861 43.4805 40.0417 42.9922 41.4414 42.9922H42.8086C44.2083 42.9922 45.3639 43.4805 46.2754 44.457C47.2194 45.401 47.6914 46.5404 47.6914 47.875C47.6914 49.2096 47.2194 50.349 46.2754 51.293C45.3639 52.2695 44.2083 52.7578 42.8086 52.7578H41.4414ZM57.0664 52.7578C55.6667 52.7578 54.4948 52.2695 53.5508 51.293C52.6393 50.349 52.1836 49.2096 52.1836 47.875C52.1836 46.5404 52.6393 45.401 53.5508 44.457C54.4948 43.4805 55.6667 42.9922 57.0664 42.9922H58.4336C59.8333 42.9922 60.9889 43.4805 61.9004 44.457C62.8444 45.401 63.3164 46.5404 63.3164 47.875C63.3164 49.2096 62.8444 50.349 61.9004 51.293C60.9889 52.2695 59.8333 52.7578 58.4336 52.7578H57.0664ZM41.4414 46.5078C40.0417 46.5078 38.8861 46.0358 37.9746 45.0918C37.0306 44.1152 36.5586 42.9596 36.5586 41.625C36.5586 40.2904 37.0306 39.151 37.9746 38.207C38.8861 37.2305 40.0417 36.7422 41.4414 36.7422H42.8086C44.2083 36.7422 45.3639 37.2305 46.2754 38.207C47.2194 39.151 47.6914 40.2904 47.6914 41.625C47.6914 42.9596 47.2194 44.1152 46.2754 45.0918C45.3639 46.0358 44.2083 46.5078 42.8086 46.5078H41.4414ZM57.0664 46.5078C55.6667 46.5078 54.4948 46.0358 53.5508 45.0918C52.6393 44.1152 52.1836 42.9596 52.1836 41.625C52.1836 40.2904 52.6393 39.151 53.5508 38.207C54.4948 37.2305 55.6667 36.7422 57.0664 36.7422H58.4336C59.8333 36.7422 60.9889 37.2305 61.9004 38.207C62.8444 39.151 63.3164 40.2904 63.3164 41.625C63.3164 42.9596 62.8444 44.1152 61.9004 45.0918C60.9889 46.0358 59.8333 46.5078 58.4336 46.5078H57.0664ZM41.4414 40.2578C40.0417 40.2578 38.8861 39.7858 37.9746 38.8418C37.0306 37.8652 36.5586 36.7096 36.5586 35.375C36.5586 34.0404 37.0306 32.901 37.9746 31.957C38.8861 30.9805 40.0417 30.4922 41.4414 30.4922H42.8086C44.2083 30.4922 45.3639 30.9805 46.2754 31.957C47.2194 32.901 47.6914 34.0404 47.6914 35.375C47.6914 36.7096 47.2194 37.8652 46.2754 38.8418C45.3639 39.7858 44.2083 40.2578 42.8086 40.2578H41.4414ZM49.5957 40.2578C48.6191 40.2578 47.7565 39.7858 47.0078 38.8418C46.2917 37.8652 45.9336 36.7096 45.9336 35.375C45.9336 34.0404 46.2917 32.901 47.0078 31.957C47.7565 30.9805 48.6191 30.4922 49.5957 30.4922H50.2793C51.2559 30.4922 52.1022 30.9805 52.8184 31.957C53.5671 32.901 53.9414 34.0404 53.9414 35.375C53.9414 36.7096 53.5671 37.8652 52.8184 38.8418C52.1022 39.7858 51.2559 40.2578 50.2793 40.2578H49.5957ZM57.0664 40.2578C55.6667 40.2578 54.4948 39.7858 53.5508 38.8418C52.6393 37.8652 52.1836 36.7096 52.1836 35.375C52.1836 34.0404 52.6393 32.901 53.5508 31.957C54.4948 30.9805 55.6667 30.4922 57.0664 30.4922H58.4336C59.8333 30.4922 60.9889 30.9805 61.9004 31.957C62.8444 32.901 63.3164 34.0404 63.3164 35.375C63.3164 36.7096 62.8444 37.8652 61.9004 38.8418C60.9889 39.7858 59.8333 40.2578 58.4336 40.2578H57.0664ZM42.418 34.0078C40.5951 34.0078 39.1628 33.5358 38.1211 32.5918C37.0794 31.6152 36.5586 30.4596 36.5586 29.125C36.5586 27.7904 37.0794 26.651 38.1211 25.707C39.1628 24.7305 40.5951 24.2422 42.418 24.2422H57.457C59.2799 24.2422 60.7122 24.7305 61.7539 25.707C62.7956 26.651 63.3164 27.7904 63.3164 29.125C63.3164 30.4596 62.7956 31.6152 61.7539 32.5918C60.7122 33.5358 59.2799 34.0078 57.457 34.0078H42.418ZM41.4414 27.7578C40.0417 27.7578 38.8861 27.2858 37.9746 26.3418C37.0306 25.3652 36.5586 24.2096 36.5586 22.875C36.5586 21.5404 37.0306 20.401 37.9746 19.457C38.8861 18.4805 40.0417 17.9922 41.4414 17.9922H45.9336C47.3333 17.9922 48.4889 18.4805 49.4004 19.457C50.3444 20.401 50.8164 21.5404 50.8164 22.875C50.8164 24.2096 50.3444 25.3652 49.4004 26.3418C48.4889 27.2858 47.3333 27.7578 45.9336 27.7578H41.4414ZM53.9414 27.7578C52.5417 27.7578 51.3698 27.2858 50.4258 26.3418C49.5143 25.3652 49.0586 24.2096 49.0586 22.875C49.0586 21.5404 49.5143 20.401 50.4258 19.457C51.3698 18.4805 52.5417 17.9922 53.9414 17.9922H58.4336C59.8333 17.9922 60.9889 18.4805 61.9004 19.457C62.8444 20.401 63.3164 21.5404 63.3164 22.875C63.3164 24.2096 62.8444 25.3652 61.9004 26.3418C60.9889 27.2858 59.8333 27.7578 58.4336 27.7578H53.9414ZM41.4414 21.5078C40.0417 21.5078 38.8861 21.0358 37.9746 20.0918C37.0306 19.1152 36.5586 17.9596 36.5586 16.625C36.5586 15.2904 37.0306 14.151 37.9746 13.207C38.8861 12.2305 40.0417 11.7422 41.4414 11.7422H42.8086C44.2083 11.7422 45.3639 12.2305 46.2754 13.207C47.2194 14.151 47.6914 15.2904 47.6914 16.625C47.6914 17.9596 47.2194 19.1152 46.2754 20.0918C45.3639 21.0358 44.2083 21.5078 42.8086 21.5078H41.4414ZM57.0664 21.5078C55.6667 21.5078 54.4948 21.0358 53.5508 20.0918C52.6393 19.1152 52.1836 17.9596 52.1836 16.625C52.1836 15.2904 52.6393 14.151 53.5508 13.207C54.4948 12.2305 55.6667 11.7422 57.0664 11.7422H58.4336C59.8333 11.7422 60.9889 12.2305 61.9004 13.207C62.8444 14.151 63.3164 15.2904 63.3164 16.625C63.3164 17.9596 62.8444 19.1152 61.9004 20.0918C60.9889 21.0358 59.8333 21.5078 58.4336 21.5078H57.0664ZM40.2207 15.2578C39.2441 15.2578 38.3978 14.7858 37.6816 13.8418C36.9329 12.8652 36.5586 11.7096 36.5586 10.375C36.5586 9.04036 36.9329 7.90104 37.6816 6.95703C38.3978 5.98047 39.2441 5.49219 40.2207 5.49219H40.9043C41.8809 5.49219 42.7272 5.98047 43.4434 6.95703C44.1921 7.90104 44.5664 9.04036 44.5664 10.375C44.5664 11.7096 44.1921 12.8652 43.4434 13.8418C42.7272 14.7858 41.8809 15.2578 40.9043 15.2578H40.2207ZM58.9707 15.2578C57.9941 15.2578 57.1315 14.7858 56.3828 13.8418C55.6667 12.8652 55.3086 11.7096 55.3086 10.375C55.3086 9.04036 55.6667 7.90104 56.3828 6.95703C57.1315 5.98047 57.9941 5.49219 58.9707 5.49219H59.6543C60.6309 5.49219 61.4772 5.98047 62.1934 6.95703C62.9421 7.90104 63.3164 9.04036 63.3164 10.375C63.3164 11.7096 62.9421 12.8652 62.1934 13.8418C61.4772 14.7858 60.6309 15.2578 59.6543 15.2578H58.9707Z" fill="#DA308E"/>
</svg>
