<svg width="35" height="35" viewBox="0 0 35 35" fill="none" xmlns="http://www.w3.org/2000/svg">
<path d="M25.2657 10.1117C23.9988 7.86483 21.2034 8.1626 18.9908 8.13011C17.538 8.10846 16.0799 8.08319 14.6235 8.10846C12.5968 8.14455 10.1497 7.99657 8.89901 9.91134C8.22766 10.94 8.19698 12.0661 8.15367 13.2518C8.06344 15.7405 8.06524 18.2616 8.15367 20.7503C8.20962 22.3727 8.28541 23.7785 9.59742 24.9083C10.6856 25.8449 12.1474 25.8539 13.51 25.899C15.838 25.9748 18.2112 25.9694 20.5392 25.899C22.0479 25.8521 23.5422 25.8395 24.6828 24.7043C25.7764 23.6161 25.8396 22.2337 25.8919 20.7792C25.9822 18.2905 25.9804 15.7712 25.8919 13.2825C25.8522 12.1654 25.8306 11.1169 25.2657 10.1153V10.1117ZM21.5697 20.2468C19.2814 23.479 14.4286 23.3436 12.3135 20.0013C10.0378 16.4046 12.503 11.6926 16.7259 11.4634C21.3495 11.2125 24.2569 16.4515 21.5697 20.2468ZM23.0694 12.4975C21.2936 12.8151 20.9669 10.1478 22.6471 9.94563C24.3435 9.7417 24.6485 12.2159 23.0694 12.4975Z" fill="#E3E3E1"/>
<path d="M16.5797 13.4179C14.3564 13.6327 12.9289 15.9589 13.5443 18.0704C14.2589 20.5266 17.3774 21.4939 19.3427 19.8263C22.1039 17.4875 20.218 13.066 16.5797 13.4161V13.4179Z" fill="#E3E3E1"/>
<path d="M17.0218 0C7.62119 0 0 7.62119 0 17.0218C0 26.4224 7.62119 34.0436 17.0218 34.0436C26.4224 34.0436 34.0436 26.4224 34.0436 17.0218C34.0436 7.62119 26.4224 0 17.0218 0ZM27.8463 20.0464C27.7904 22.3438 27.7579 24.4084 26.0091 26.1174C24.3272 27.7633 22.3131 27.7958 20.0988 27.8517C18.0541 27.9022 15.9895 27.9004 13.9448 27.8517C11.6402 27.7958 9.56123 27.7452 7.87385 25.9568C6.28031 24.2676 6.25143 22.2987 6.19729 20.1042C6.14676 18.0595 6.14676 15.9949 6.19729 13.9502C6.25143 11.7593 6.2785 9.7832 7.87385 8.09762C9.55762 6.32001 11.7341 6.23338 14.0387 6.18105C16.0599 6.13593 18.11 6.15217 20.1277 6.2027C22.324 6.25865 24.2983 6.29474 25.9803 7.90813C27.7561 9.61356 27.7904 11.6998 27.8463 14.008C27.895 16.0148 27.895 18.0396 27.8463 20.0446V20.0464Z" fill="#E3E3E1"/>
</svg>
