<svg width="35" height="35" viewBox="0 0 35 35" fill="none" xmlns="http://www.w3.org/2000/svg">
<path d="M12.4869 16.9334L7.1288 11.6132C7.13601 11.7089 7.06743 11.8641 7.06201 11.9254V22.167L7.15225 22.6561C7.21361 22.6994 7.56012 22.3926 7.62508 22.3294C8.10513 21.8747 8.52201 21.3369 8.99845 20.8767L12.4851 16.9352L12.4869 16.9334Z" fill="#E3E3E1"/>
<path d="M19.5304 18.8698C19.4492 18.942 19.3391 19.0918 19.2633 19.1369C19.2525 19.1441 19.229 19.1297 19.2182 19.1369C19.0684 19.3065 18.8843 19.4293 18.684 19.5375C18.6732 19.5429 18.6515 19.5321 18.6389 19.5375C18.6443 19.6205 18.4205 19.736 18.3574 19.7685C17.9766 19.9707 17.5994 20.0898 17.1681 20.115C17.0814 20.1204 16.9894 20.1168 16.901 20.115C15.432 20.0807 14.6523 18.9817 13.6742 18.0667C13.6183 18.0144 13.5479 17.9873 13.4739 17.9783C13.4594 17.9819 13.4378 17.9729 13.4288 17.9783L13.3403 18.1118C13.3259 18.1263 13.3115 18.1407 13.2952 18.1569C13.2501 18.2021 13.2068 18.2454 13.1617 18.2905C13.1472 18.3049 13.131 18.3194 13.1166 18.3356C13.0552 18.3789 13.048 18.5161 13.0137 18.5468C12.6961 18.8301 12.3712 19.1964 12.0482 19.5375L12.0031 19.5826C12.0031 19.6115 11.9995 19.6476 11.9796 19.6693C11.81 19.8552 11.5591 20.0537 11.3786 20.2504C11.3642 20.2666 11.348 20.2793 11.3335 20.2955C10.8102 20.8658 10.3031 21.4523 9.77428 22.0316C9.75984 22.0479 9.7436 22.0605 9.72916 22.0767L9.59562 22.2103C9.58118 22.2265 9.56494 22.2391 9.5505 22.2554L9.41695 22.3889C9.41695 22.3889 9.42417 22.425 9.41695 22.4341C9.2437 22.6272 9.05421 22.8094 8.88457 23.0025C8.79073 23.109 8.74922 23.3075 8.57056 23.3238C8.55612 23.34 8.53446 23.3562 8.52544 23.3689L8.50378 23.5475H25.4678C25.6068 23.5295 25.2188 23.1956 25.2224 23.1469C25.2079 23.1325 25.1917 23.118 25.1773 23.1018C25.1628 23.0873 25.1484 23.0729 25.1322 23.0567C25.1177 23.0422 25.1015 23.0278 25.087 23.0116C24.9968 23.0152 24.9499 22.9664 24.9535 22.878C24.9391 22.8636 24.9246 22.8473 24.9084 22.8329C24.8073 22.7336 24.7514 22.6651 24.6864 22.5658C24.4716 22.4268 24.4103 22.268 24.2406 22.0767C24.2262 22.0605 24.21 22.0479 24.1955 22.0316C24.1829 22.0154 24.1648 22.0027 24.1504 21.9865C24.136 21.9702 24.1197 21.9576 24.1053 21.9414C24.0385 21.8638 24.0223 21.8313 23.9717 21.7627C23.9663 21.7555 23.9465 21.7591 23.8833 21.6743C23.6541 21.5371 23.4321 21.1978 23.2607 21.0065C23.2463 20.9921 23.23 20.9777 23.2156 20.9614C22.8041 20.5139 22.3566 20.0952 21.9685 19.626C21.9613 19.6169 21.9758 19.5899 21.9685 19.5808L21.5679 19.1351C21.1925 18.7435 20.8442 18.332 20.4779 17.9332C20.1584 18.2454 19.8553 18.572 19.5214 18.868L19.5304 18.8698Z" fill="#E3E3E1"/>
<path d="M8.71119 10.4997C8.66426 10.5339 9.15153 10.9887 9.20026 11.0338C11.0735 12.7844 12.889 14.5999 14.7443 16.3757C15.1846 16.7962 16.0996 17.8736 16.5905 18.092C17.1571 18.3428 17.5975 18.0072 18.0161 17.648C18.7452 17.0218 19.3949 16.1898 20.1529 15.5762L20.198 15.5311C20.2125 15.5167 20.2269 15.5004 20.2431 15.486C20.2594 15.4716 20.272 15.4553 20.2883 15.4409C20.3027 15.4264 20.3171 15.4102 20.3334 15.3958C20.743 14.9987 21.6797 13.9358 22.0695 13.703C22.1814 13.5153 22.1705 13.5983 22.2481 13.5243C22.2626 13.5099 22.277 13.4936 22.2933 13.4792C22.333 13.4431 22.3781 13.3908 22.4268 13.3456C22.4412 13.3312 22.4557 13.315 22.4719 13.3005C22.7534 13.0352 23.044 12.7718 23.3183 12.4992C23.3328 12.4848 23.3472 12.4704 23.3634 12.4541C23.4085 12.409 23.4519 12.3639 23.497 12.3206C23.5114 12.3061 23.5259 12.2917 23.5421 12.2755C23.5872 12.2304 23.6305 12.1852 23.6756 12.1419C23.6901 12.1275 23.7045 12.113 23.7208 12.0968C23.737 12.0806 23.7496 12.0679 23.7659 12.0517C23.7803 12.0372 23.7947 12.021 23.811 12.0066L23.8561 11.9615L23.9012 11.9163C24.1503 11.6041 24.4643 11.3497 24.7476 11.0699C24.7621 11.0555 24.7765 11.0393 24.7927 11.0248C24.8577 10.9599 24.9064 10.848 24.9732 10.7812C25.0436 10.7126 25.2493 10.6188 25.3269 10.5123C25.2602 10.469 25.1429 10.4924 25.0598 10.4906C25.0003 10.4906 24.9407 10.4906 24.8812 10.4906C19.4942 10.4455 14.1054 10.5231 8.71841 10.4906L8.71119 10.4997Z" fill="#E3E3E1"/>
<path d="M21.5337 16.9334C21.9794 17.4676 22.4342 17.9927 22.8926 18.5143C23.943 19.709 25.0438 20.9759 26.1429 22.1201C26.3576 22.3438 26.576 22.5676 26.8323 22.7427L26.9243 22.1886V11.6565L21.5337 16.9334Z" fill="#E3E3E1"/>
<path d="M17.0236 0C7.62118 0 0 7.62119 0 17.0218C0 26.4224 7.62118 34.0436 17.0236 34.0436C26.426 34.0436 34.0454 26.4224 34.0454 17.0218C34.0454 7.62119 26.4242 0 17.0236 0ZM28.8262 22.9773C28.5212 24.4192 27.285 25.4894 25.789 25.5056H8.15357C6.52755 25.4334 5.29675 24.1359 5.15057 22.5423L5.15598 11.1945C5.40863 9.46016 6.5889 8.68415 8.25823 8.55241L26.1012 8.53797C27.433 8.67873 28.5519 9.67131 28.8172 10.9869C28.9309 14.9699 28.9129 18.9925 28.8262 22.9773Z" fill="#E3E3E1"/>
</svg>
