<svg width="34" height="34" viewBox="0 0 34 34" fill="none" xmlns="http://www.w3.org/2000/svg">
<path d="M27.691 3.7805C28.8708 4.73048 29.9892 5.93561 30.8655 7.17511C37.9878 17.2685 32.3326 31.2088 20.3537 33.657C10.8229 35.604 1.55416 29.0483 0.161132 19.3964C-0.427878 15.3124 0.62186 10.8972 2.91827 7.48996C8.48495 -0.772182 19.92 -2.48215 27.6928 3.7805H27.691ZM23.4794 9.83687C21.9978 8.47432 20.1567 7.4013 18.1422 7.08464C17.4755 6.97968 16.5215 6.90911 15.8729 7.09368C14.8719 7.37596 14.899 8.87965 16.0969 9.04612C16.3155 9.07689 16.3571 8.98641 16.5323 8.96469C20.1351 8.52499 24.5996 12.7845 25.0206 16.2606C25.1181 17.0658 24.6285 18.736 25.8047 18.8391C26.5563 18.906 26.9213 18.4482 26.9936 17.7389C27.2953 14.8238 25.5608 11.7513 23.4794 9.83868V9.83687ZM11.8239 10.0269C10.3224 8.34947 9.34859 8.7946 7.95195 10.244C7.55085 10.6602 7.11361 11.089 7.02327 11.6916C6.71251 13.7562 8.27356 16.6713 9.41364 18.3397C11.869 21.9297 16.8576 26.4191 21.2842 27.0017C22.6844 27.1863 23.3674 26.5674 24.2401 25.6138C25.4379 24.3038 25.3928 23.3248 24.0377 22.136C23.1741 21.376 21.7485 20.3754 20.6012 21.0286C20.014 21.3615 19.4774 22.3405 18.8179 22.3423C17.7194 22.3441 15.8476 20.6269 15.0544 19.8723C14.1293 18.9911 11.7299 16.5772 11.6721 15.3178C11.6649 15.1532 11.6829 14.9957 11.7227 14.8365C12.2286 14.252 13.1193 13.5825 13.1988 12.761C13.2856 11.8707 12.3966 10.6656 11.8257 10.0269H11.8239ZM21.4576 13.2098C20.3898 11.9829 18.892 11.1379 17.293 10.852C16.9624 10.7923 16.4528 11.0149 16.2667 11.3008C16.0933 11.5649 16.1114 12.0698 16.2505 12.3448C16.5107 12.8569 17.1629 12.8352 17.6399 12.9727C19.0022 13.3636 20.3663 14.5886 20.8867 15.9131C21.0692 16.3782 21.1125 17.0513 21.3311 17.4422C21.6654 18.0375 22.7079 18.0465 23.0006 17.4639C23.0548 17.3571 23.0277 17.2866 23.053 17.2106C23.0656 17.1726 23.1307 17.178 23.1379 17.1454C23.2409 16.7111 22.838 15.5386 22.6609 15.1206C22.3628 14.4185 21.9545 13.7816 21.4558 13.208L21.4576 13.2098Z" fill="#E3E3E1"/>
</svg>
